<?xml version="1.0" encoding="UTF-8" standalone="no"?>
<svg
   xmlns:dc="http://purl.org/dc/elements/1.1/"
   xmlns:cc="http://creativecommons.org/ns#"
   xmlns:rdf="http://www.w3.org/1999/02/22-rdf-syntax-ns#"
   xmlns:svg="http://www.w3.org/2000/svg"
   xmlns="http://www.w3.org/2000/svg"
   xmlns:sodipodi="http://sodipodi.sourceforge.net/DTD/sodipodi-0.dtd"
   xmlns:inkscape="http://www.inkscape.org/namespaces/inkscape"
   sodipodi:docname="deleted-picture.svg"
   inkscape:version="1.0alpha (c79a9bc, 2019-05-29)"
   id="svg8"
   version="1.1"
   viewBox="0 0 210 297"
   height="297mm"
   width="210mm">
  <defs
     id="defs2" />
  <sodipodi:namedview
     inkscape:window-maximized="0"
     inkscape:window-y="135"
     inkscape:window-x="1878"
     inkscape:window-height="1159"
     inkscape:window-width="1997"
     inkscape:snap-bbox="true"
     inkscape:snap-nodes="true"
     inkscape:snap-others="true"
     showgrid="false"
     inkscape:document-rotation="0"
     inkscape:current-layer="layer1"
     inkscape:document-units="mm"
     inkscape:cy="490.42121"
     inkscape:cx="340.81216"
     inkscape:zoom="2.3339507"
     inkscape:pageshadow="2"
     inkscape:pageopacity="0.0"
     borderopacity="1.0"
     bordercolor="#666666"
     pagecolor="#ffffff"
     id="base" />
  <metadata
     id="metadata5">
    <rdf:RDF>
      <cc:Work
         rdf:about="">
        <dc:format>image/svg+xml</dc:format>
        <dc:type
           rdf:resource="http://purl.org/dc/dcmitype/StillImage" />
        <dc:title></dc:title>
      </cc:Work>
    </rdf:RDF>
  </metadata>
  <g
     id="layer1"
     inkscape:groupmode="layer"
     inkscape:label="Layer 1">
    <rect
       ry="24.029127"
       y="77.213593"
       x="34.281551"
       height="105.08737"
       width="105.08737"
       id="rect10"
       style="fill:#cccccc;fill-rule:evenodd;stroke-width:0.264583" />
    <g
       transform="matrix(1.3190436,0.37542007,-0.36331117,1.2764988,5.8024428,-75.130519)"
       id="g1008">
      <g
         id="g994"
         transform="matrix(0.33816427,0,0,0.36561915,118.79168,63.207993)">
        <rect
           rx="0"
           ry="12.257205"
           y="93.977814"
           x="-88.876488"
           height="73.912582"
           width="70.398338"
           id="rect955"
           style="fill:#00ffff;stroke:none;stroke-width:0.836656" />
        <circle
           r="6.9151344"
           cy="105.08736"
           cx="-70.284973"
           id="path959"
           style="fill:#ffff00;stroke:none;stroke-width:0.264583" />
        <ellipse
           ry="2.4373014"
           rx="5.55478"
           cy="106.16432"
           cx="-49.766296"
           id="path961"
           style="fill:#f2f2f2;stroke:none;stroke-width:0.264583" />
        <ellipse
           ry="2.5506644"
           rx="4.5345144"
           cy="107.63803"
           cx="-42.51107"
           id="path963"
           style="fill:#ececec;stroke:none;stroke-width:0.264583" />
        <ellipse
           ry="2.6640272"
           rx="6.2349572"
           cy="103.89706"
           cx="-41.717533"
           id="path965"
           style="fill:#f2f2f2;stroke:none;stroke-width:0.264583" />
        <ellipse
           ry="2.5506644"
           rx="5.6114616"
           cy="106.73113"
           cx="-34.292267"
           id="path967"
           style="fill:#cccccc;stroke:none;stroke-width:0.264583" />
        <ellipse
           ry="2.0405314"
           rx="3.0607972"
           cy="108.48826"
           cx="-47.725765"
           id="path969"
           style="fill:#cccccc;stroke:none;stroke-width:0.264583" />
        <ellipse
           ry="2.3806202"
           rx="6.0082316"
           cy="111.43568"
           cx="-40.357178"
           id="path971"
           style="fill:#f2f2f2;stroke:none;stroke-width:0.264583" />
        <ellipse
           ry="2.0405314"
           rx="5.55478"
           cy="103.50029"
           cx="-55.547798"
           id="path973"
           style="fill:#f2f2f2;stroke:none;stroke-width:0.264583" />
        <ellipse
           ry="2.9474344"
           rx="7.6519933"
           cy="101.68649"
           cx="-62.519615"
           id="path975"
           style="fill:#ececec;stroke:none;stroke-width:0.264583" />
        <path
           transform="scale(0.26458333)"
           inkscape:connector-curvature="0"
           id="path981"
           d="m -335.68347,568.57712 v -65.97739 l 3.32055,-2.64669 c 10.4729,-8.34758 22.18562,-14.26659 33.52357,-16.94113 6.27434,-1.48006 16.50257,-1.8333 22.76475,-0.78619 6.4211,1.07368 13.01352,3.36519 20.08432,6.98125 16.70296,8.542 27.89485,11.67148 41.72125,11.66609 13.48224,-0.005 23.6976,-2.71744 38.93027,-10.33601 3.23707,-1.61902 6.40571,-2.94366 7.0414,-2.94366 1.77618,0 4.1411,-1.34991 10.20975,-5.8278 16.59882,-12.24782 24.91191,-16.31293 34.27664,-16.76135 5.31953,-0.25472 8.82173,0.49714 13.64547,2.92944 12.980867,6.54543 26.785014,19.49747 36.873749,34.59761 l 3.252271,4.86778 v 63.57772 63.57771 h -132.822 -132.82199 z"
           style="fill:#00ff00;stroke:none;stroke-width:0.428458" />
      </g>
    </g>
    <g
       transform="translate(-0.46305323)"
       id="g953">
      <path
         sodipodi:nodetypes="ccccc"
         inkscape:connector-curvature="0"
         d="m 123.02912,114.79459 -71.481659,0.007 10.769472,58.57711 50.619627,0.27352 z"
         style="opacity:1;fill:#333333;stroke:none;stroke-width:0.298599;stop-opacity:1"
         id="rect12-3" />
      <rect
         style="opacity:1;fill:#808080;stroke-width:0.205308;stop-opacity:1"
         id="rect15-9-4"
         width="4.8463211"
         height="46.231441"
         x="64.725914"
         y="135.25211"
         ry="3.9854686"
         rx="0"
         transform="matrix(0.98034498,-0.19729094,0.06822719,0.99766981,0,0)" />
      <rect
         style="opacity:1;fill:#808080;stroke-width:0.205308;stop-opacity:1"
         id="rect15-9-2"
         width="4.8463211"
         height="46.231441"
         x="41.903423"
         y="135.27603"
         ry="3.9854686"
         rx="0"
         transform="matrix(0.96194508,-0.27324286,0.1459261,0.98929549,0,0)" />
      <rect
         style="opacity:1;fill:#808080;stroke-width:0.205308;stop-opacity:1"
         id="rect15-9-8"
         width="4.8463211"
         height="46.231438"
         x="-90.574974"
         y="110.2844"
         ry="3.9854686"
         rx="0"
         transform="matrix(-0.9916204,-0.12918587,7.656087e-4,0.99999971,0,0)" />
      <rect
         transform="matrix(-0.98034498,-0.19729094,-0.06822719,0.99766981,0,0)"
         rx="0"
         ry="3.9854686"
         y="100.42487"
         x="-111.39001"
         height="46.231441"
         width="4.8463211"
         id="rect15-9-4-3"
         style="opacity:1;fill:#808080;stroke-width:0.205308;stop-opacity:1" />
      <rect
         transform="matrix(-0.96194508,-0.27324286,-0.1459261,0.98929549,0,0)"
         rx="0"
         ry="3.9854686"
         y="87.041214"
         x="-132.73422"
         height="46.231441"
         width="4.8463211"
         id="rect15-9-2-6"
         style="opacity:1;fill:#808080;stroke-width:0.205308;stop-opacity:1" />
    </g>
  </g>
</svg>
